<svg width="163" height="45" viewBox="0 0 163 45" fill="none" xmlns="http://www.w3.org/2000/svg">
<g clip-path="url(#clip0_2_19)">
<path d="M14.8505 7.09994C14.5809 7.09994 14.3313 7.13082 14.1047 7.19259C13.8809 7.25716 13.7002 7.31331 13.5625 7.36103V14.9551C13.5625 16.909 13.5797 18.9135 13.6142 20.9657C13.6486 23.0208 13.7547 25.0618 13.9355 27.0915L13.8006 27.1308C13.6429 26.7799 13.4449 26.3476 13.2068 25.8338C12.9687 25.32 12.7163 24.7698 12.4438 24.1802C12.1742 23.5907 11.8902 23.0039 11.5976 22.4144C11.3021 21.8248 11.021 21.2661 10.7485 20.7412L4.27128 8.7142C3.95574 8.08815 3.60578 7.65581 3.22139 7.41718C2.837 7.18136 2.3723 7.06064 1.83014 7.06064C1.01834 7.06064 0.407335 7.28804 0 7.73722V28.9725C0 29.8737 0.49626 30.3257 1.49165 30.3257C1.74121 30.3257 1.98217 30.292 2.22026 30.2302C2.45835 30.1684 2.63334 30.1123 2.74521 30.0618V18.8237C2.74521 17.4481 2.71365 15.9882 2.64481 14.4469C2.57596 12.9057 2.48704 11.5328 2.3723 10.3313L2.50999 10.2948C2.66776 10.6457 2.86569 11.0837 3.10378 11.6086C3.339 12.1336 3.60004 12.6867 3.88116 13.2622C4.16514 13.8405 4.45774 14.4273 4.76467 15.0281C5.06874 15.6289 5.35846 16.1819 5.62811 16.6816L12.0709 28.7086C12.3864 29.3346 12.7393 29.767 13.1236 30.0056C13.508 30.2414 13.9699 30.3622 14.512 30.3622C14.8964 30.3622 15.2464 30.306 15.5648 30.1937C15.8803 30.0814 16.1414 29.9242 16.345 29.7221V8.45311C16.345 7.54913 15.8459 7.09994 14.8505 7.09994Z" fill="black"/>
<path d="M32.518 13.7507C31.3648 12.7737 29.8043 12.2852 27.8393 12.2852C26.9128 12.2852 26.0522 12.3779 25.2605 12.566C24.4688 12.7541 23.7689 13.0236 23.1607 13.3745C22.8194 13.5766 22.5727 13.79 22.412 14.0146C22.2543 14.2392 22.1768 14.5283 22.1768 14.8793C22.1768 15.1544 22.2485 15.4043 22.3977 15.6288C22.544 15.8562 22.7075 16.0556 22.8882 16.2324C23.5423 15.8562 24.2881 15.5165 25.1257 15.2162C25.9633 14.9158 26.8554 14.767 27.8049 14.767C28.9581 14.767 29.8732 15.0533 30.553 15.6288C31.23 16.2072 31.5685 17.1224 31.5685 18.3745V19.4245L26.755 19.9523C24.9909 20.1516 23.6226 20.6738 22.6501 21.5104C21.6777 22.3526 21.1929 23.5963 21.1929 25.2498C21.1929 27.0045 21.7752 28.3464 22.9399 29.2729C24.1016 30.1993 25.7482 30.6625 27.8738 30.6625C29.0269 30.6625 30.0481 30.5306 30.9403 30.2667C31.8352 30.0056 32.5524 29.6996 33.0945 29.3487C33.4789 29.096 33.7658 28.8265 33.9608 28.5401C34.1502 28.251 34.2477 27.8327 34.2477 27.2796V18.3745C34.2477 16.2689 33.6711 14.7277 32.518 13.7507ZM31.5685 27.2431C31.2988 27.4424 30.8513 27.6502 30.2289 27.8635C29.6064 28.0769 28.8233 28.1836 27.8738 28.1836C26.5399 28.1836 25.5445 27.9253 24.8876 27.4116C24.2336 26.8978 23.9066 26.1651 23.9066 25.2133C23.9066 24.3122 24.1877 23.63 24.7528 23.1639C25.3179 22.7007 26.1871 22.4087 27.3632 22.2824L31.5685 21.7939V27.2431Z" fill="black"/>
<path d="M60.5266 13.731C59.4422 12.7681 57.985 12.2852 56.152 12.2852C55.0218 12.2852 54.0178 12.4789 53.1343 12.8692C52.2536 13.2566 51.5193 13.7395 50.9312 14.315C50.478 13.6889 49.824 13.1948 48.9634 12.8299C48.1057 12.4677 47.1218 12.2852 46.0145 12.2852C45.065 12.2852 44.1213 12.4424 43.1833 12.7541C42.2452 13.0685 41.4707 13.4391 40.8597 13.863C40.3864 14.2139 40.0508 14.5592 39.8586 14.8961C39.6664 15.2358 39.5717 15.6541 39.5717 16.1566V28.9725C39.5717 29.8737 40.0565 30.3256 41.029 30.3256C41.3015 30.3256 41.5482 30.292 41.7748 30.2302C42.0014 30.1684 42.1707 30.1123 42.2854 30.0618V16.005C42.7358 15.6794 43.2837 15.393 43.9291 15.1404C44.5716 14.8905 45.2572 14.767 45.9801 14.767C47.0644 14.767 47.925 15.0533 48.5561 15.6288C49.19 16.2072 49.5056 17.1084 49.5056 18.3352V28.9725C49.5056 29.8737 49.9932 30.3256 50.9657 30.3256C51.2124 30.3256 51.4562 30.292 51.6943 30.2302C51.9324 30.1684 52.1073 30.1123 52.2192 30.0618V18.1106C52.2192 17.5351 52.1504 16.9961 52.0155 16.4935C53.1687 15.3425 54.4796 14.767 55.9483 14.767C57.0126 14.767 57.8588 15.0533 58.4927 15.6288C59.1267 16.2072 59.4422 17.1084 59.4422 18.3352V28.9725C59.4422 29.8737 59.927 30.3256 60.8995 30.3256C61.149 30.3256 61.3929 30.292 61.6281 30.2302C61.8662 30.1684 62.0412 30.1123 62.1559 30.0618V18.1864C62.1559 16.1819 61.6137 14.6968 60.5266 13.731Z" fill="black"/>
<path d="M70.3944 5.95171C70.0788 5.58956 69.66 5.40707 69.1408 5.40707C68.6216 5.40707 68.1971 5.58956 67.8672 5.95171C67.5402 6.31668 67.3767 6.76025 67.3767 7.28804C67.3767 7.81583 67.5402 8.2594 67.8672 8.62156C68.1971 8.98372 68.6187 9.1662 69.1408 9.1662C69.6629 9.1662 70.0788 8.98372 70.3944 8.62156C70.7099 8.2594 70.8706 7.81303 70.8706 7.28804C70.8706 6.76305 70.7099 6.31668 70.3944 5.95171ZM69.072 12.5856C68.8023 12.5856 68.547 12.6165 68.3089 12.6811C68.0709 12.7428 67.8959 12.799 67.784 12.8495V28.9725C67.784 29.8737 68.2688 30.3257 69.2412 30.3257C69.5137 30.3257 69.7604 30.292 69.987 30.2302C70.2137 30.1684 70.3829 30.1123 70.4976 30.0618V13.9753C70.4976 13.0488 70.0215 12.5856 69.072 12.5856Z" fill="black"/>
<path d="M84.6712 13.6581C84.6024 13.4447 84.5364 13.2762 84.4675 13.1499H78.9054V8.8265C78.9054 7.92532 78.4321 7.47614 77.4826 7.47614C77.2101 7.47614 76.9577 7.50702 76.7196 7.56878C76.4815 7.63054 76.3065 7.68669 76.1946 7.73722V25.5896C76.1946 27.3919 76.6851 28.6833 77.6691 29.461C78.3805 30.0225 79.2496 30.3818 80.2737 30.5362C80.4286 30.5615 80.5892 30.5783 80.7556 30.5924L83.016 27.9478C82.8267 28.0039 82.6431 28.0488 82.4681 28.0825H82.4653C82.2358 28.1246 82.0264 28.1443 81.8227 28.1443C80.8962 28.1443 80.1762 27.9394 79.6684 27.5239C79.1607 27.1112 78.9054 26.4037 78.9054 25.4015V15.6289H83.7561C84.2294 15.6289 84.5364 15.4211 84.6798 15.0056C84.74 14.8259 84.7716 14.6098 84.7716 14.3515C84.7716 14.0932 84.7372 13.8714 84.6712 13.6581Z" fill="black"/>
<path d="M93.8936 15.2218V24.4245C93.8936 25.7018 93.6211 26.6114 93.0789 27.1477C92.5368 27.6867 91.7565 27.9562 90.7411 27.9562C90.219 27.9562 89.7227 27.8804 89.2494 27.7316C88.7732 27.58 88.3659 27.4172 88.0274 27.2431C87.9127 27.3694 87.7893 27.5575 87.6545 27.8074C87.5197 28.0573 87.4508 28.3577 87.4508 28.7086C87.4508 29.2588 87.7434 29.7052 88.3315 30.0421C88.9195 30.3818 89.8575 30.5502 91.1484 30.5502C91.8713 30.5502 92.5655 30.4492 93.2338 30.2499C93.8993 30.0477 94.4874 29.7164 94.9951 29.2532C95.5057 28.79 95.9045 28.1752 96.1999 27.4116C96.4925 26.6479 96.6417 25.7018 96.6417 24.5733V12.0073L93.8936 15.2218Z" fill="black"/>
<path d="M112.815 13.7507C111.661 12.7737 110.101 12.2852 108.136 12.2852C107.209 12.2852 106.349 12.3779 105.557 12.566C104.765 12.7541 104.066 13.0236 103.457 13.3745C103.116 13.5766 102.866 13.79 102.709 14.0146C102.551 14.2392 102.473 14.5283 102.473 14.8793C102.473 15.1544 102.545 15.4043 102.694 15.6288C102.841 15.8562 103.004 16.0556 103.185 16.2324C103.839 15.8562 104.585 15.5165 105.422 15.2162C106.26 14.9158 107.152 14.767 108.102 14.767C109.255 14.767 110.17 15.0533 110.847 15.6288C111.527 16.2072 111.865 17.1224 111.865 18.3745V19.4245L107.052 19.9523C105.288 20.1516 103.919 20.6738 102.947 21.5104C101.974 22.3526 101.49 23.5963 101.49 25.2498C101.49 27.0045 102.072 28.3464 103.236 29.2729C104.398 30.1993 106.045 30.6625 108.17 30.6625C109.324 30.6625 110.345 30.5306 111.237 30.2667C112.132 30.0056 112.849 29.6996 113.391 29.3487C113.776 29.096 114.062 28.8265 114.255 28.5401C114.447 28.251 114.544 27.8327 114.544 27.2796V18.3745C114.544 16.2689 113.968 14.7277 112.815 13.7507ZM111.865 27.2431C111.595 27.4424 111.148 27.6502 110.525 27.8635C109.903 28.0769 109.12 28.1836 108.17 28.1836C106.837 28.1836 105.841 27.9253 105.184 27.4116C104.53 26.8978 104.203 26.1651 104.203 25.2133C104.203 24.3122 104.484 23.63 105.049 23.1639C105.615 22.7007 106.484 22.4087 107.66 22.2824L111.865 21.7939V27.2431Z" fill="black"/>
<path d="M122.648 5.95171C122.332 5.58956 121.914 5.40707 121.394 5.40707C120.875 5.40707 120.451 5.58956 120.124 5.95171C119.794 6.31668 119.63 6.76025 119.63 7.28804C119.63 7.81583 119.794 8.2594 120.124 8.62156C120.451 8.98372 120.872 9.1662 121.394 9.1662C121.917 9.1662 122.332 8.98372 122.648 8.62156C122.964 8.2594 123.124 7.81303 123.124 7.28804C123.124 6.76305 122.964 6.31668 122.648 5.95171ZM121.326 12.5856C121.056 12.5856 120.801 12.6165 120.563 12.6811C120.324 12.7428 120.149 12.799 120.038 12.8495V28.9725C120.038 29.8737 120.522 30.3257 121.495 30.3257C121.767 30.3257 122.014 30.292 122.241 30.2302C122.467 30.1684 122.637 30.1123 122.751 30.0618V13.9753C122.751 13.0488 122.275 12.5856 121.326 12.5856Z" fill="black"/>
<path d="M136.925 27.9562C136.81 27.7316 136.687 27.5435 136.552 27.3919C136.234 27.594 135.838 27.7681 135.364 27.9197C134.891 28.0685 134.461 28.1443 134.076 28.1443C133.15 28.1443 132.43 27.9394 131.922 27.5239C131.414 27.1112 131.159 26.4037 131.159 25.4015V15.6289H136.01C136.687 15.6289 137.025 15.2049 137.025 14.3515C137.025 14.1016 136.991 13.8714 136.925 13.6581C136.856 13.4447 136.79 13.2762 136.721 13.1499H131.159V8.8265C131.159 7.92532 130.686 7.47614 129.736 7.47614C129.464 7.47614 129.208 7.50702 128.973 7.56878C128.735 7.63054 128.56 7.68669 128.448 7.73722V25.5896C128.448 27.3919 128.939 28.6833 129.923 29.461C130.907 30.2358 132.189 30.6261 133.769 30.6261C134.811 30.6261 135.625 30.4492 136.213 30.0983C136.799 29.7473 137.094 29.2981 137.094 28.7451C137.094 28.4447 137.037 28.1836 136.925 27.9562Z" fill="black"/>
<path d="M142.926 5.51938C142.676 5.51938 142.435 5.55307 142.197 5.61483C141.959 5.67659 141.784 5.73274 141.672 5.78328V28.9725C141.672 29.8737 142.157 30.3257 143.13 30.3257C143.402 30.3257 143.649 30.292 143.875 30.2302C144.102 30.1685 144.271 30.1123 144.383 30.0618V6.87255C144.383 5.97137 143.898 5.51938 142.926 5.51938Z" fill="black"/>
<path d="M162.627 12.7541C162.378 12.5435 162.062 12.4368 161.678 12.4368C161.428 12.4368 161.213 12.4677 161.032 12.5295C160.851 12.5912 160.682 12.6614 160.524 12.7372C160.275 13.9135 159.988 15.1488 159.661 16.4374C159.331 17.7288 158.981 19.0006 158.608 20.2527C158.235 21.5048 157.857 22.6895 157.472 23.804C157.088 24.9186 156.715 25.8647 156.354 26.6423H156.219C155.292 24.388 154.46 22.2319 153.726 20.1769C152.992 18.1246 152.286 16.0303 151.606 13.9023C151.425 13.3745 151.216 12.9983 150.978 12.7737C150.743 12.5491 150.43 12.4368 150.046 12.4368C149.753 12.4368 149.475 12.5098 149.217 12.6614C148.956 12.8102 148.746 13.0123 148.588 13.2622C148.973 14.5901 149.38 15.8984 149.81 17.1898C150.238 18.4812 150.662 19.7024 151.081 20.8534C151.5 22.0073 151.899 23.046 152.286 23.9725C152.667 24.9017 153.009 25.6654 153.301 26.2661C153.709 27.142 154.076 27.7372 154.403 28.0517C154.73 28.3633 155.089 28.5823 155.473 28.7086C155.2 29.3346 154.862 29.986 154.455 30.6625C154.047 31.3391 153.617 31.9961 153.167 32.6362C152.713 33.2734 152.263 33.8686 151.81 34.4217C151.357 34.9719 150.949 35.4239 150.588 35.7748C150.657 36.1735 150.832 36.5244 151.116 36.8248C151.397 37.128 151.798 37.2768 152.318 37.2768C153.04 37.2768 153.826 36.7069 154.675 35.5671C155.522 34.4273 156.477 32.7906 157.541 30.6625C158.218 29.3094 158.886 27.7625 159.541 26.0219C160.197 24.2813 160.78 22.5828 161.287 20.9292C161.795 19.2757 162.208 17.7849 162.527 16.457C162.842 15.1291 163 14.2139 163 13.7142C163 13.2875 162.877 12.9674 162.627 12.7541Z" fill="black"/>
<path d="M84.6712 13.658C84.7372 13.8714 84.7716 14.1016 84.7716 14.3515C84.7716 14.6013 84.74 14.8259 84.6798 15.0056C84.5823 14.3767 84.4876 13.7591 84.3958 13.1499H84.4675C84.5364 13.2762 84.6023 13.4447 84.6712 13.658Z" fill="white"/>
<path d="M92.2011 17.2038L86.1284 24.3066C86.1141 24.2167 86.0997 24.1241 86.0882 24.0343C88.3601 21.4936 90.3882 19.228 92.2011 17.2038Z" fill="white"/>
<path d="M107.258 0.370575L96.6417 12.2375C95.7954 13.1836 94.8804 14.2055 93.8936 15.3116C93.3572 15.9096 92.8007 16.53 92.2212 17.1785C92.2126 17.187 92.2069 17.1954 92.2012 17.2038C90.3882 19.228 88.3601 21.4935 86.0882 24.0342C84.9437 25.3144 83.7389 26.662 82.4681 28.0825H82.4653C81.7567 28.877 81.0252 29.694 80.2737 30.5362C76.5933 34.6491 72.4138 39.3206 67.6635 44.6322" stroke="black" stroke-miterlimit="10"/>
</g>
<defs>
<clipPath id="clip0_2_19">
<rect width="163" height="45" fill="white"/>
</clipPath>
</defs>
</svg>
